<svg viewBox="0 0 440 392" fill="none" xmlns="http://www.w3.org/2000/svg">
    <style>
        :root {
            --stroke-color: #1B1B18;
            --g1-fill: #1B1B18;
            --g2-fill: #F3BEC7;
            --g3-fill: #F8B803;
            --g4-fill: #F3BEC7;
            --g5-fill: #F3BEC7;
        }
        @media (prefers-color-scheme: dark) {
            :root {
                --stroke-color: #FF750F;
                --g1-fill: black;
                --g2-fill: #4B0600;
                --g3-fill: #391800;
                --g4-fill: #733000;
                --g5-fill: #4B0600;
            }
        }
        .g1 { color: var(--g1-fill); mix-blend-mode: darken; }
        .g2 { color: var(--g2-fill); }
        .g3 { color: var(--g3-fill); mix-blend-mode: color; }
        .g4 { color: var(--g4-fill); mix-blend-mode: multiply; }
        .g5 { color: var(--g5-fill); mix-blend-mode: hard-light; }
        @media (prefers-color-scheme: dark) {
            .g1 { mix-blend-mode: normal; }
            .g3 { mix-blend-mode: hard-light; }
            .g4 { mix-blend-mode: normal; }
        }
        /* Fade-in animations inside the SVG */
        @keyframes fadeIn { from { opacity: 0; transform: translateX(20px); } to { opacity: 1; transform: translateX(0); } }
        .g1 { animation: fadeIn 0.75s ease-out 0.3s both; }
        .g2 { animation: fadeIn 0.75s ease-out 0.4s both; transform-origin: left; }
        .g3 { animation: fadeIn 0.75s ease-out 0.4s both; transform-origin: left; }
        .g4 { animation: fadeIn 0.75s ease-out 0.4s both; transform-origin: left; }
        .g5 { animation: fadeIn 0.75s ease-out 0.4s both; transform-origin: left; }
    </style>
    <g class="g1">
        <mask id="path-1-mask" maskUnits="userSpaceOnUse" x="-0.328613" y="103" width="338" height="299" fill="black">
            <rect fill="white" x="-0.328613" y="103" width="338" height="299"/>
            <path d="M234.936 400.8C204.136 400.8 178.936 392.4 159.336 375.6C140.136 358.8 130.536 337 130.536 310.2H200.736C200.736 318.2 203.736 324.8 209.736 330C215.736 335.2 223.736 337.8 233.736 337.8C243.336 337.8 251.136 335 257.136 329.4C263.536 323.8 266.736 316.6 266.736 307.8C266.736 299.8 263.936 293.2 258.336 288C252.736 282.8 245.536 280.2 236.736 280.2H199.536V218.4H236.736C243.536 218.4 249.336 216 254.136 211.2C258.936 206.4 261.336 200.4 261.336 193.2C261.336 184.8 258.736 178.2 253.536 173.4C248.336 168.6 241.736 166.2 233.736 166.2C226.536 166.2 220.336 168.4 215.136 172.8C210.336 177.2 207.936 182.8 207.936 189.6H141.336C141.336 164.8 150.136 144.6 167.736 129C185.336 113 207.936 105 235.536 105C263.136 105 285.536 112.2 302.736 126.6C320.336 141 329.136 160 329.136 183.6C329.136 200.8 324.536 214.8 315.336 225.6C306.136 236 294.336 243.2 279.936 247.2C297.136 252 310.736 260.2 320.736 271.8C331.136 283.4 336.336 298 336.336 315.6C336.336 340.4 326.936 360.8 308.136 376.8C289.336 392.8 264.936 400.8 234.936 400.8Z"/>
            <path d="M26.8714 167.6H1.67139V105.2H94.6714V400.2H26.8714V167.6Z"/>
        </mask>
        <path d="M234.936 400.8C204.136 400.8 178.936 392.4 159.336 375.6C140.136 358.8 130.536 337 130.536 310.2H200.736C200.736 318.2 203.736 324.8 209.736 330C215.736 335.2 223.736 337.8 233.736 337.8C243.336 337.8 251.136 335 257.136 329.4C263.536 323.8 266.736 316.6 266.736 307.8C266.736 299.8 263.936 293.2 258.336 288C252.736 282.8 245.536 280.2 236.736 280.2H199.536V218.4H236.736C243.536 218.4 249.336 216 254.136 211.2C258.936 206.4 261.336 200.4 261.336 193.2C261.336 184.8 258.736 178.2 253.536 173.4C248.336 168.6 241.736 166.2 233.736 166.2C226.536 166.2 220.336 168.4 215.136 172.8C210.336 177.2 207.936 182.8 207.936 189.6H141.336C141.336 164.8 150.136 144.6 167.736 129C185.336 113 207.936 105 235.536 105C263.136 105 285.536 112.2 302.736 126.6C320.336 141 329.136 160 329.136 183.6C329.136 200.8 324.536 214.8 315.336 225.6C306.136 236 294.336 243.2 279.936 247.2C297.136 252 310.736 260.2 320.736 271.8C331.136 283.4 336.336 298 336.336 315.6C336.336 340.4 326.936 360.8 308.136 376.8C289.336 392.8 264.936 400.8 234.936 400.8Z" fill="currentColor"/>
        <path d="M26.8714 167.6H1.67139V105.2H94.6714V400.2H26.8714V167.6Z" fill="currentColor"/>
        <path d="M234.936 400.8C204.136 400.8 178.936 392.4 159.336 375.6C140.136 358.8 130.536 337 130.536 310.2H200.736C200.736 318.2 203.736 324.8 209.736 330C215.736 335.2 223.736 337.8 233.736 337.8C243.336 337.8 251.136 335 257.136 329.4C263.536 323.8 266.736 316.6 266.736 307.8C266.736 299.8 263.936 293.2 258.336 288C252.736 282.8 245.536 280.2 236.736 280.2H199.536V218.4H236.736C243.536 218.4 249.336 216 254.136 211.2C258.936 206.4 261.336 200.4 261.336 193.2C261.336 184.8 258.736 178.2 253.536 173.4C248.336 168.6 241.736 166.2 233.736 166.2C226.536 166.2 220.336 168.4 215.136 172.8C210.336 177.2 207.936 182.8 207.936 189.6H141.336C141.336 164.8 150.136 144.6 167.736 129C185.336 113 207.936 105 235.536 105C263.136 105 285.536 112.2 302.736 126.6C320.336 141 329.136 160 329.136 183.6C329.136 200.8 324.536 214.8 315.336 225.6C306.136 236 294.336 243.2 279.936 247.2C297.136 252 310.736 260.2 320.736 271.8C331.136 283.4 336.336 298 336.336 315.6C336.336 340.4 326.936 360.8 308.136 376.8C289.336 392.8 264.936 400.8 234.936 400.8Z" stroke="var(--stroke-color)" stroke-width="2.4" mask="url(#path-1-mask)"/>
        <path d="M26.8714 167.6H1.67139V105.2H94.6714V400.2H26.8714V167.6Z" stroke="var(--stroke-color)" stroke-width="2.4" mask="url(#path-1-mask)"/>
    </g>

    <g class="g2">
        <mask id="path-2-mask" maskUnits="userSpaceOnUse" x="25.3357" y="103" width="338" height="299" fill="black">
            <rect fill="white" x="25.3357" y="103" width="338" height="299"/>
            <path d="M260.6 400.8C229.8 400.8 204.6 392.4 185 375.6C165.8 358.8 156.2 337 156.2 310.2H226.4C226.4 318.2 229.4 324.8 235.4 330C241.4 335.2 249.4 337.8 259.4 337.8C269 337.8 276.8 335 282.8 329.4C289.2 323.8 292.4 316.6 292.4 307.8C292.4 299.8 289.6 293.2 284 288C278.4 282.8 271.2 280.2 262.4 280.2H225.2V218.4H262.4C269.2 218.4 275 216 279.8 211.2C284.6 206.4 287 200.4 287 193.2C287 184.8 284.4 178.2 279.2 173.4C274 168.6 267.4 166.2 259.4 166.2C252.2 166.2 246 168.4 240.8 172.8C236 177.2 233.6 182.8 233.6 189.6H167C167 164.8 175.8 144.6 193.4 129C211 113 233.6 105 261.2 105C288.8 105 311.2 112.2 328.4 126.6C346 141 354.8 160 354.8 183.6C354.8 200.8 350.2 214.8 341 225.6C331.8 236 320 243.2 305.6 247.2C322.8 252 336.4 260.2 346.4 271.8C356.8 283.4 362 298 362 315.6C362 340.4 352.6 360.8 333.8 376.8C315 392.8 290.6 400.8 260.6 400.8Z"/>
            <path d="M52.5357 167.6H27.3357V105.2H120.336V400.2H52.5357V167.6Z"/>
        </mask>
        <path d="M260.6 400.8C229.8 400.8 204.6 392.4 185 375.6C165.8 358.8 156.2 337 156.2 310.2H226.4C226.4 318.2 229.4 324.8 235.4 330C241.4 335.2 249.4 337.8 259.4 337.8C269 337.8 276.8 335 282.8 329.4C289.2 323.8 292.4 316.6 292.4 307.8C292.4 299.8 289.6 293.2 284 288C278.4 282.8 271.2 280.2 262.4 280.2H225.2V218.4H262.4C269.2 218.4 275 216 279.8 211.2C284.6 206.4 287 200.4 287 193.2C287 184.8 284.4 178.2 279.2 173.4C274 168.6 267.4 166.2 259.4 166.2C252.2 166.2 246 168.4 240.8 172.8C236 177.2 233.6 182.8 233.6 189.6H167C167 164.8 175.8 144.6 193.4 129C211 113 233.6 105 261.2 105C288.8 105 311.2 112.2 328.4 126.6C346 141 354.8 160 354.8 183.6C354.8 200.8 350.2 214.8 341 225.6C331.8 236 320 243.2 305.6 247.2C322.8 252 336.4 260.2 346.4 271.8C356.8 283.4 362 298 362 315.6C362 340.4 352.6 360.8 333.8 376.8C315 392.8 290.6 400.8 260.6 400.8Z" fill="currentColor"/>
        <path d="M52.5357 167.6H27.3357V105.2H120.336V400.2H52.5357V167.6Z" fill="currentColor"/>
        <path d="M260.6 400.8C229.8 400.8 204.6 392.4 185 375.6C165.8 358.8 156.2 337 156.2 310.2H226.4C226.4 318.2 229.4 324.8 235.4 330C241.4 335.2 249.4 337.8 259.4 337.8C269 337.8 276.8 335 282.8 329.4C289.2 323.8 292.4 316.6 292.4 307.8C292.4 299.8 289.6 293.2 284 288C278.4 282.8 271.2 280.2 262.4 280.2H225.2V218.4H262.4C269.2 218.4 275 216 279.8 211.2C284.6 206.4 287 200.4 287 193.2C287 184.8 284.4 178.2 279.2 173.4C274 168.6 267.4 166.2 259.4 166.2C252.2 166.2 246 168.4 240.8 172.8C236 177.2 233.6 182.8 233.6 189.6H167C167 164.8 175.8 144.6 193.4 129C211 113 233.6 105 261.2 105C288.8 105 311.2 112.2 328.4 126.6C346 141 354.8 160 354.8 183.6C354.8 200.8 350.2 214.8 341 225.6C331.8 236 320 243.2 305.6 247.2C322.8 252 336.4 260.2 346.4 271.8C356.8 283.4 362 298 362 315.6C362 340.4 352.6 360.8 333.8 376.8C315 392.8 290.6 400.8 260.6 400.8Z" stroke="var(--stroke-color)" stroke-width="2.4" mask="url(#path-2-mask)"/>
        <path d="M52.5357 167.6H27.3357V105.2H120.336V400.2H52.5357V167.6Z" stroke="var(--stroke-color)" stroke-width="2.4" mask="url(#path-2-mask)"/>
    </g>
    
    <g class="g3">
        <mask id="path-3-mask" maskUnits="userSpaceOnUse" x="51" y="103" width="338" height="299" fill="black">
            <rect fill="white" x="51" y="103" width="338" height="299"/>
            <path d="M286.264 400.8C255.464 400.8 230.264 392.4 210.664 375.6C191.464 358.8 181.864 337 181.864 310.2H252.064C252.064 318.2 255.064 324.8 261.064 330C267.064 335.2 275.064 337.8 285.064 337.8C294.664 337.8 302.464 335 308.464 329.4C314.864 323.8 318.064 316.6 318.064 307.8C318.064 299.8 315.264 293.2 309.664 288C304.064 282.8 296.864 280.2 288.064 280.2H250.864V218.4H288.064C294.864 218.4 300.664 216 305.464 211.2C310.264 206.4 312.664 200.4 312.664 193.2C312.664 184.8 310.064 178.2 304.864 173.4C299.664 168.6 293.064 166.2 285.064 166.2C277.864 166.2 271.664 168.4 266.464 172.8C261.664 177.2 259.264 182.8 259.264 189.6H192.664C192.664 164.8 201.464 144.6 219.064 129C236.664 113 259.264 105 286.864 105C314.464 105 336.864 112.2 354.064 126.6C371.664 141 380.464 160 380.464 183.6C380.464 200.8 375.864 214.8 366.664 225.6C357.464 236 345.664 243.2 331.264 247.2C348.464 252 362.064 260.2 372.064 271.8C382.464 283.4 387.664 298 387.664 315.6C387.664 340.4 378.264 360.8 359.464 376.8C340.664 392.8 316.264 400.8 286.264 400.8Z"/>
            <path d="M78.2 167.6H53V105.2H146V400.2H78.2V167.6Z"/>
        </mask>
        <path d="M286.264 400.8C255.464 400.8 230.264 392.4 210.664 375.6C191.464 358.8 181.864 337 181.864 310.2H252.064C252.064 318.2 255.064 324.8 261.064 330C267.064 335.2 275.064 337.8 285.064 337.8C294.664 337.8 302.464 335 308.464 329.4C314.864 323.8 318.064 316.6 318.064 307.8C318.064 299.8 315.264 293.2 309.664 288C304.064 282.8 296.864 280.2 288.064 280.2H250.864V218.4H288.064C294.864 218.4 300.664 216 305.464 211.2C310.264 206.4 312.664 200.4 312.664 193.2C312.664 184.8 310.064 178.2 304.864 173.4C299.664 168.6 293.064 166.2 285.064 166.2C277.864 166.2 271.664 168.4 266.464 172.8C261.664 177.2 259.264 182.8 259.264 189.6H192.664C192.664 164.8 201.464 144.6 219.064 129C236.664 113 259.264 105 286.864 105C314.464 105 336.864 112.2 354.064 126.6C371.664 141 380.464 160 380.464 183.6C380.464 200.8 375.864 214.8 366.664 225.6C357.464 236 345.664 243.2 331.264 247.2C348.464 252 362.064 260.2 372.064 271.8C382.464 283.4 387.664 298 387.664 315.6C387.664 340.4 378.264 360.8 359.464 376.8C340.664 392.8 316.264 400.8 286.264 400.8Z" fill="currentColor"/>
        <path d="M78.2 167.6H53V105.2H146V400.2H78.2V167.6Z" fill="currentColor"/>
        <path d="M286.264 400.8C255.464 400.8 230.264 392.4 210.664 375.6C191.464 358.8 181.864 337 181.864 310.2H252.064C252.064 318.2 255.064 324.8 261.064 330C267.064 335.2 275.064 337.8 285.064 337.8C294.664 337.8 302.464 335 308.464 329.4C314.864 323.8 318.064 316.6 318.064 307.8C318.064 299.8 315.264 293.2 309.664 288C304.064 282.8 296.864 280.2 288.064 280.2H250.864V218.4H288.064C294.864 218.4 300.664 216 305.464 211.2C310.264 206.4 312.664 200.4 312.664 193.2C312.664 184.8 310.064 178.2 304.864 173.4C299.664 168.6 293.064 166.2 285.064 166.2C277.864 166.2 271.664 168.4 266.464 172.8C261.664 177.2 259.264 182.8 259.264 189.6H192.664C192.664 164.8 201.464 144.6 219.064 129C236.664 113 259.264 105 286.864 105C314.464 105 336.864 112.2 354.064 126.6C371.664 141 380.464 160 380.464 183.6C380.464 200.8 375.864 214.8 366.664 225.6C357.464 236 345.664 243.2 331.264 247.2C348.464 252 362.064 260.2 372.064 271.8C382.464 283.4 387.664 298 387.664 315.6C387.664 340.4 378.264 360.8 359.464 376.8C340.664 392.8 316.264 400.8 286.264 400.8Z" stroke="var(--stroke-color)" stroke-width="2.4" mask="url(#path-3-mask)"/>
        <path d="M78.2 167.6H53V105.2H146V400.2H78.2V167.6Z" stroke="var(--stroke-color)" stroke-width="2.4" mask="url(#path-3-mask)"/>
    </g>
    
    <g class="g4">
        <mask id="path-4-mask" maskUnits="userSpaceOnUse" x="76.6643" y="103" width="338" height="299" fill="black">
            <rect fill="white" x="76.6643" y="103" width="338" height="299"/>
            <path d="M311.929 400.8C281.129 400.8 255.929 392.4 236.329 375.6C217.129 358.8 207.529 337 207.529 310.2H277.729C277.729 318.2 280.729 324.8 286.729 330C292.729 335.2 300.729 337.8 310.729 337.8C320.329 337.8 328.129 335 334.129 329.4C340.529 323.8 343.729 316.6 343.729 307.8C343.729 299.8 340.929 293.2 335.329 288C329.729 282.8 322.529 280.2 313.729 280.2H276.529V218.4H313.729C320.529 218.4 326.329 216 331.129 211.2C335.929 206.4 338.329 200.4 338.329 193.2C338.329 184.8 335.729 178.2 330.529 173.4C325.329 168.6 318.729 166.2 310.729 166.2C303.529 166.2 297.329 168.4 292.129 172.8C287.329 177.2 284.929 182.8 284.929 189.6H218.329C218.329 164.8 227.129 144.6 244.729 129C262.329 113 284.929 105 312.529 105C340.129 105 362.529 112.2 379.729 126.6C397.329 141 406.129 160 406.129 183.6C406.129 200.8 401.529 214.8 392.329 225.6C383.129 236 371.329 243.2 356.929 247.2C374.129 252 387.729 260.2 397.729 271.8C408.129 283.4 413.329 298 413.329 315.6C413.329 340.4 403.929 360.8 385.129 376.8C366.329 392.8 341.929 400.8 311.929 400.8Z"/>
            <path d="M103.864 167.6H78.6643V105.2H171.664V400.2H103.864V167.6Z"/>
        </mask>
        <path d="M311.929 400.8C281.129 400.8 255.929 392.4 236.329 375.6C217.129 358.8 207.529 337 207.529 310.2H277.729C277.729 318.2 280.729 324.8 286.729 330C292.729 335.2 300.729 337.8 310.729 337.8C320.329 337.8 328.129 335 334.129 329.4C340.529 323.8 343.729 316.6 343.729 307.8C343.729 299.8 340.929 293.2 335.329 288C329.729 282.8 322.529 280.2 313.729 280.2H276.529V218.4H313.729C320.529 218.4 326.329 216 331.129 211.2C335.929 206.4 338.329 200.4 338.329 193.2C338.329 184.8 335.729 178.2 330.529 173.4C325.329 168.6 318.729 166.2 310.729 166.2C303.529 166.2 297.329 168.4 292.129 172.8C287.329 177.2 284.929 182.8 284.929 189.6H218.329C218.329 164.8 227.129 144.6 244.729 129C262.329 113 284.929 105 312.529 105C340.129 105 362.529 112.2 379.729 126.6C397.329 141 406.129 160 406.129 183.6C406.129 200.8 401.529 214.8 392.329 225.6C383.129 236 371.329 243.2 356.929 247.2C374.129 252 387.729 260.2 397.729 271.8C408.129 283.4 413.329 298 413.329 315.6C413.329 340.4 403.929 360.8 385.129 376.8C366.329 392.8 341.929 400.8 311.929 400.8Z" fill="currentColor"/>
        <path d="M103.864 167.6H78.6643V105.2H171.664V400.2H103.864V167.6Z" fill="currentColor"/>
        <path d="M311.929 400.8C281.129 400.8 255.929 392.4 236.329 375.6C217.129 358.8 207.529 337 207.529 310.2H277.729C277.729 318.2 280.729 324.8 286.729 330C292.729 335.2 300.729 337.8 310.729 337.8C320.329 337.8 328.129 335 334.129 329.4C340.529 323.8 343.729 316.6 343.729 307.8C343.729 299.8 340.929 293.2 335.329 288C329.729 282.8 322.529 280.2 313.729 280.2H276.529V218.4H313.729C320.529 218.4 326.329 216 331.129 211.2C335.929 206.4 338.329 200.4 338.329 193.2C338.329 184.8 335.729 178.2 330.529 173.4C325.329 168.6 318.729 166.2 310.729 166.2C303.529 166.2 297.329 168.4 292.129 172.8C287.329 177.2 284.929 182.8 284.929 189.6H218.329C218.329 164.8 227.129 144.6 244.729 129C262.329 113 284.929 105 312.529 105C340.129 105 362.529 112.2 379.729 126.6C397.329 141 406.129 160 406.129 183.6C406.129 200.8 401.529 214.8 392.329 225.6C383.129 236 371.329 243.2 356.929 247.2C374.129 252 387.729 260.2 397.729 271.8C408.129 283.4 413.329 298 413.329 315.6C413.329 340.4 403.929 360.8 385.129 376.8C366.329 392.8 341.929 400.8 311.929 400.8Z" stroke="var(--stroke-color)" stroke-width="2.4" mask="url(#path-4-mask)"/>
        <path d="M103.864 167.6H78.6643V105.2H171.664V400.2H103.864V167.6Z" stroke="var(--stroke-color)" stroke-width="2.4" mask="url(#path-4-mask)"/>
    </g>
    
    <g class="g5">
        <mask id="path-5-mask" maskUnits="userSpaceOnUse" x="102.329" y="103" width="338" height="299" fill="black">
            <rect fill="white" x="102.329" y="103" width="338" height="299"/>
            <path d="M337.593 400.8C306.793 400.8 281.593 392.4 261.993 375.6C242.793 358.8 233.193 337 233.193 310.2H303.393C303.393 318.2 306.393 324.8 312.393 330C318.393 335.2 326.393 337.8 336.393 337.8C345.993 337.8 353.793 335 359.793 329.4C366.193 323.8 369.393 316.6 369.393 307.8C369.393 299.8 366.593 293.2 360.993 288C355.393 282.8 348.193 280.2 339.393 280.2H302.193V218.4H339.393C346.193 218.4 351.993 216 356.793 211.2C361.593 206.4 363.993 200.4 363.993 193.2C363.993 184.8 361.393 178.2 356.193 173.4C350.993 168.6 344.393 166.2 336.393 166.2C329.193 166.2 322.993 168.4 317.793 172.8C312.993 177.2 310.593 182.8 310.593 189.6H243.993C243.993 164.8 252.793 144.6 270.393 129C287.993 113 310.593 105 338.193 105C365.793 105 388.193 112.2 405.393 126.6C422.993 141 431.793 160 431.793 183.6C431.793 200.8 427.193 214.8 417.993 225.6C408.793 236 396.993 243.2 382.593 247.2C399.793 252 413.393 260.2 423.393 271.8C433.793 283.4 438.993 298 438.993 315.6C438.993 340.4 429.593 360.8 410.793 376.8C391.993 392.8 367.593 400.8 337.593 400.8Z"/>
            <path d="M129.529 167.6H104.329V105.2H197.329V400.2H129.529V167.6Z"/>
        </mask>
        <path d="M337.593 400.8C306.793 400.8 281.593 392.4 261.993 375.6C242.793 358.8 233.193 337 233.193 310.2H303.393C303.393 318.2 306.393 324.8 312.393 330C318.393 335.2 326.393 337.8 336.393 337.8C345.993 337.8 353.793 335 359.793 329.4C366.193 323.8 369.393 316.6 369.393 307.8C369.393 299.8 366.593 293.2 360.993 288C355.393 282.8 348.193 280.2 339.393 280.2H302.193V218.4H339.393C346.193 218.4 351.993 216 356.793 211.2C361.593 206.4 363.993 200.4 363.993 193.2C363.993 184.8 361.393 178.2 356.193 173.4C350.993 168.6 344.393 166.2 336.393 166.2C329.193 166.2 322.993 168.4 317.793 172.8C312.993 177.2 310.593 182.8 310.593 189.6H243.993C243.993 164.8 252.793 144.6 270.393 129C287.993 113 310.593 105 338.193 105C365.793 105 388.193 112.2 405.393 126.6C422.993 141 431.793 160 431.793 183.6C431.793 200.8 427.193 214.8 417.993 225.6C408.793 236 396.993 243.2 382.593 247.2C399.793 252 413.393 260.2 423.393 271.8C433.793 283.4 438.993 298 438.993 315.6C438.993 340.4 429.593 360.8 410.793 376.8C391.993 392.8 367.593 400.8 337.593 400.8Z" fill="currentColor"/>
        <path d="M129.529 167.6H104.329V105.2H197.329V400.2H129.529V167.6Z" fill="currentColor"/>
        <path d="M337.593 400.8C306.793 400.8 281.593 392.4 261.993 375.6C242.793 358.8 233.193 337 233.193 310.2H303.393C303.393 318.2 306.393 324.8 312.393 330C318.393 335.2 326.393 337.8 336.393 337.8C345.993 337.8 353.793 335 359.793 329.4C366.193 323.8 369.393 316.6 369.393 307.8C369.393 299.8 366.593 293.2 360.993 288C355.393 282.8 348.193 280.2 339.393 280.2H302.193V218.4H339.393C346.193 218.4 351.993 216 356.793 211.2C361.593 206.4 363.993 200.4 363.993 193.2C363.993 184.8 361.393 178.2 356.193 173.4C350.993 168.6 344.393 166.2 336.393 166.2C329.193 166.2 322.993 168.4 317.793 172.8C312.993 177.2 310.593 182.8 310.593 189.6H243.993C243.993 164.8 252.793 144.6 270.393 129C287.993 113 310.593 105 338.193 105C365.793 105 388.193 112.2 405.393 126.6C422.993 141 431.793 160 431.793 183.6C431.793 200.8 427.193 214.8 417.993 225.6C408.793 236 396.993 243.2 382.593 247.2C399.793 252 413.393 260.2 423.393 271.8C433.793 283.4 438.993 298 438.993 315.6C438.993 340.4 429.593 360.8 410.793 376.8C391.993 392.8 367.593 400.8 337.593 400.8Z" stroke="var(--stroke-color)" stroke-width="2.4" mask="url(#path-5-mask)"/>
        <path d="M129.529 167.6H104.329V105.2H197.329V400.2H129.529V167.6Z" stroke="var(--stroke-color)" stroke-width="2.4" mask="url(#path-5-mask)"/>
    </g>
</svg>
